<svg width="210" height="45" viewBox="0 0 210 45" fill="none" xmlns="http://www.w3.org/2000/svg">
<path fill-rule="evenodd" clip-rule="evenodd" d="M24.9076 44.2566H11.7723V11.3833H0V1.36676H36.6799V11.3833H24.9076V44.2566ZM40.3899 31.2681H52.472C52.9676 33.854 56.0966 35.3401 59.8141 35.3401C63.7485 35.3401 66.1649 33.7945 66.1649 31.6842C66.1649 29.6631 64.4301 28.8011 59.4114 27.9392L54.9193 27.1664C46.0282 25.6505 41.1644 21.3407 41.1644 14.6829C41.1644 6.06328 48.9093 0.624023 59.5353 0.624023C71.4934 0.624023 78.185 5.94439 78.247 14.4154H66.1649C66.072 11.7998 63.2838 10.2839 59.6902 10.2839C56.0346 10.2839 54.1758 11.8295 54.1758 13.7615C54.1758 15.6934 56.0966 16.6148 60.5576 17.3876L65.0497 18.1604C74.6534 19.8249 79.1764 23.5997 79.1764 30.5548C79.1764 39.3824 71.9891 45 59.6592 45C48.0728 45 40.4209 40.0363 40.3899 31.2681ZM116.066 34.2401V44.2566H84.5291V1.36676H116.066V11.3833H97.6644V18.3087H114.92V27.3444H97.6644V34.2401H116.066ZM135.793 44.2566H122.658V1.36676H135.793V19.5571H136.041L149.858 1.36676H163.644L148.929 20.419L164.325 44.2566H149.052L139.294 28.5036L135.793 33.0214V44.2566ZM209.889 44.2566H196.753V27.6714H181.016V44.2566H167.88V1.36676H181.016V17.6548H196.753V1.36676H209.889V44.2566Z" fill="white"/>
</svg>
